<?xml version="1.0" encoding="UTF-8" standalone="no"?><!DOCTYPE svg PUBLIC "-//W3C//DTD SVG 1.1//EN" "http://www.w3.org/Graphics/SVG/1.1/DTD/svg11.dtd"><svg width="100%" height="100%" viewBox="0 0 882 233" version="1.1" xmlns="http://www.w3.org/2000/svg" xmlns:xlink="http://www.w3.org/1999/xlink" xml:space="preserve" xmlns:serif="http://www.serif.com/" style="fill-rule:evenodd;clip-rule:evenodd;stroke-linejoin:round;stroke-miterlimit:10;"><rect id="btn_ans_active" x="0.078" y="0" width="881.891" height="232.474" style="fill:none;"/><g><path d="M19.556,179.781c0.904,10.211 2.289,21.098 8.977,28.866c9.706,11.273 26.64,11.91 41.514,11.674c140.423,-2.232 230.173,-4.464 370.597,-6.696c135.496,-2.153 286.636,13.877 419.93,-7.991c5.309,-26.004 6.121,-45.51 4.453,-71.17l-4.01,-43.739c-1.518,-14.584 -3.299,-31.345 -5.194,-51.221c-5.302,-55.624 -835.73,-8.848 -835.619,-9.95c-4.855,49.913 -5.072,100.275 -0.648,150.227" style="fill:#d9dd4c;fill-rule:nonzero;"/><path d="M19.556,179.781c0.904,10.211 2.289,21.098 8.977,28.866c9.706,11.273 26.64,11.91 41.514,11.674c140.423,-2.232 230.173,-4.464 370.597,-6.696c135.496,-2.153 286.636,13.877 419.93,-7.991c5.309,-26.004 6.121,-45.51 4.453,-71.17l-4.01,-43.739c-1.518,-14.584 -3.299,-31.345 -5.194,-51.221c-5.302,-55.624 -835.73,-8.848 -835.619,-9.95c-4.855,49.913 -5.072,100.275 -0.648,150.227Z" style="fill:none;fill-rule:nonzero;stroke:#231f20;stroke-width:8px;"/></g></svg>