<?xml version="1.0" encoding="UTF-8" standalone="no"?>
<!DOCTYPE svg PUBLIC "-//W3C//DTD SVG 1.1//EN" "http://www.w3.org/Graphics/SVG/1.1/DTD/svg11.dtd">
<svg width="100%" height="100%" preserveAspectRatio="none" viewBox="0 0 325 75" version="1.1" xmlns="http://www.w3.org/2000/svg" xmlns:xlink="http://www.w3.org/1999/xlink" xml:space="preserve" xmlns:serif="http://www.serif.com/" style="fill-rule:evenodd;clip-rule:evenodd;stroke-linejoin:round;stroke-miterlimit:2;">
    <g transform="matrix(1,0,0,1,-332,-243)">
        <g id="btn_ans" transform="matrix(1.00664,0,0,1.01734,-255.049,-343.049)">
            <rect x="584.058" y="576.946" width="321.862" height="72.738" style="fill:none;"/>
            <g transform="matrix(0.993403,0,0,0.982952,550.35,224.181)">
                <clipPath id="_clip1">
                    <rect x="35" y="360" width="322" height="72.738"/>
                </clipPath>
                <g clip-path="url(#_clip1)">
                    <g transform="matrix(1,0,0,-1,35,431.916)">
                        <g>
                            <clipPath id="_clip2">
                                <rect x="0" y="-0.834" width="322" height="72.75" clip-rule="nonzero"/>
                            </clipPath>
                            <g clip-path="url(#_clip2)">
                                <path d="M287.915,0.56C294.396,0.56 300.888,0.257 307.354,0.642C314.432,1.063 316.523,3.267 318.588,11.701C322.562,27.928 322.075,44.613 321.424,61.236C321.225,66.289 317.995,68.585 314.098,68.827C299.42,69.737 284.956,73.169 270.13,72.871C211.85,71.692 224.193,72.617 165.886,69.292C120.608,66.708 75.176,68.23 29.815,67.815C23.347,67.755 16.819,67.627 10.438,66.512C2.546,65.135 0.219,61.633 0.061,52.226C-0.084,43.559 -0.1,34.89 1.562,26.313C6.728,-0.343 9.315,3.168 24.995,3.025C43.257,2.86 61.554,3.487 79.772,2.287C94.438,1.321 109.032,-0.964 123.787,-0.816C160.312,-0.454 182.94,0.397 219.465,0.712C227.092,0.778 234.708,2.32 242.338,2.44C266.474,2.811 233.922,3.726 258.019,2.551C267.937,2.069 277.913,0.557 287.915,0.56" style="fill:white;fill-rule:nonzero;"/>
                            </g>
                        </g>
                    </g>
                </g>
            </g>
        </g>
    </g>
</svg>
