<?xml version="1.0" encoding="utf-8"?>
<svg width="100%" height="100%" preserveAspectRatio="none" viewBox="0 0 324 75" version="1.1" style="fill-rule:evenodd;clip-rule:evenodd;stroke-linejoin:round;stroke-miterlimit:2;" xmlns="http://www.w3.org/2000/svg">
  <path d="M 288.982 2.429 C 295.463 2.429 301.955 2.126 308.421 2.511 C 315.499 2.932 317.59 5.136 319.655 13.57 C 323.629 29.797 323.142 46.482 322.491 63.104 C 322.292 68.157 319.062 70.453 315.165 70.695 C 300.487 71.605 286.023 75.037 271.197 74.739 C 212.917 73.56 225.26 74.485 166.953 71.16 C 121.675 68.576 76.243 70.098 30.882 69.683 C 24.414 69.623 17.886 69.495 11.505 68.38 C 3.613 67.003 1.286 63.501 1.128 54.094 C 0.983 45.428 0.967 36.759 2.629 28.182 C 7.795 1.526 10.382 5.037 26.062 4.894 C 44.324 4.729 62.621 5.356 80.839 4.156 C 95.505 3.19 110.099 0.905 124.854 1.053 C 161.379 1.415 184.007 2.266 220.532 2.581 C 228.159 2.647 235.775 4.189 243.405 4.309 C 267.541 4.68 234.989 5.595 259.086 4.42 C 269.004 3.938 278.98 2.426 288.982 2.429" style="fill:rgb(254,187,8);fill-rule:nonzero;"/>
</svg>