<svg preserveAspectRatio="none" clip-rule="evenodd" fill-rule="evenodd" stroke-linejoin="round" stroke-miterlimit="10" viewBox="0 0 882 233" xmlns="http://www.w3.org/2000/svg"><path d="m.078 0h881.891v232.474h-881.891z" fill="none"/><path d="m19.556 179.781c.904 10.211 2.289 21.098 8.977 28.866 9.706 11.273 26.64 11.91 41.514 11.674 140.423-2.232 230.173-4.464 370.597-6.696 135.496-2.153 286.636 13.877 419.93-7.991 5.309-26.004 6.121-45.51 4.453-71.17l-4.01-43.739c-1.518-14.584-3.299-31.345-5.194-51.221-5.302-55.624-835.73-8.848-835.619-9.95-4.855 49.913-5.072 100.275-.648 150.227" fill="#d9dd4c" fill-rule="nonzero"/><path d="m19.556 179.781c.904 10.211 2.289 21.098 8.977 28.866 9.706 11.273 26.64 11.91 41.514 11.674 140.423-2.232 230.173-4.464 370.597-6.696 135.496-2.153 286.636 13.877 419.93-7.991 5.309-26.004 6.121-45.51 4.453-71.17l-4.01-43.739c-1.518-14.584-3.299-31.345-5.194-51.221-5.302-55.624-835.73-8.848-835.619-9.95-4.855 49.913-5.072 100.275-.648 150.227z" fill="none" stroke="#231f20" stroke-width="8"/></svg>